<svg width="213" height="72" viewBox="0 0 213 72" fill="none" xmlns="http://www.w3.org/2000/svg">
<path d="M204.938 43.0225V1.71321H197.727V14.7546C194.292 12.2372 192.482 11.3281 190.516 11.3281C184.913 11.3281 182.649 15.6986 182.649 23.679V31.2311C182.649 39.2464 184.939 43.5906 190.516 43.5906C193.723 43.5906 196.923 41.1869 198.181 39.2202H198.295V42.9963L204.938 43.0225ZM197.727 36.0298C196.293 37.5682 194.982 38.2587 193.356 38.2587C191.416 38.2587 189.86 37 189.86 30.8202V24.1422C189.86 17.9624 191.46 16.7038 193.356 16.7038C194.965 16.7038 196.276 17.3856 197.727 18.9327V36.0298ZM162.554 43.0225V19.4921C164.092 18.1198 165.753 16.6863 167.239 16.6863C169.188 16.6863 169.861 18.0586 169.861 20.1214V43.005H177.063V19.3348C177.063 13.5571 174.773 11.3281 170.368 11.3281C167.396 11.3281 164.931 13.155 162.3 15.4451V11.8963H155.307V43.0225H162.554ZM134.294 23.3381V21.5899C134.294 18.8453 135.614 17.1233 138.534 17.1233C141.453 17.1233 142.764 18.8715 142.764 21.5899V23.3381H134.294ZM149.975 29.177V21.9133C149.975 15.5587 145.229 11.3281 138.534 11.3281C131.663 11.3281 127.092 15.5587 127.092 22.3678V32.5509C127.092 39.3601 131.663 43.5906 138.534 43.5906C145.797 43.5906 149.635 39.8146 149.975 33.4075H142.764C142.764 35.8113 141.567 37.778 138.534 37.778C136.13 37.778 134.294 36.4056 134.294 33.3114V29.177H149.975ZM121.603 43.0225V1.71321H114.392V14.7546C110.956 12.2372 109.147 11.3281 107.18 11.3281C101.577 11.3281 99.3135 15.6986 99.3135 23.679V31.2311C99.3135 39.2464 101.604 43.5906 107.18 43.5906C110.388 43.5906 113.587 41.1869 114.846 39.2202H114.968V42.9963L121.603 43.0225ZM114.392 36.0298C112.958 37.5682 111.647 38.2587 110.021 38.2587C108.072 38.2587 106.472 37 106.472 30.8202V24.1422C106.472 17.9624 108.072 16.7038 110.021 16.7038C111.621 16.7038 112.932 17.3856 114.392 18.9327V36.0298ZM93.3261 0H86.1149V6.52067H93.3261V0ZM86.1149 43.0225H93.3261V11.8963H86.1149V43.0225ZM64.6648 11.8963H57.4536L65.9235 43.0225H73.0123L81.4735 11.8963H74.2623L69.516 31.9216H69.4024L64.6648 11.8963ZM52.8821 0H45.636V6.52067H52.8472L52.8821 0ZM45.636 43.0225H52.8472V11.8963H45.636V43.0225ZM33.4949 43.0225V21.7385C33.4897 21.2763 33.5789 20.8178 33.7568 20.3912C33.9348 19.9646 34.1979 19.5787 34.53 19.2572C34.8622 18.9357 35.2564 18.6853 35.6886 18.5213C36.1208 18.3573 36.5819 18.2831 37.0437 18.3033C38.3532 18.3974 39.6439 18.6679 40.881 19.1075V11.3281C37.271 11.3281 35.0945 12.9277 33.4425 16.0132H33.3988V11.8963H26.3187V43.0225H33.4949ZM0 1.71321V8.70589H9.21286V43.04H17.0796V8.68841H26.3187V1.69572L0 1.71321Z" fill="#E0861A"/>
<path d="M208.201 36.7124V53.2035H65.5734V43.1456H61.4756V57.3197H212.307V36.7124H208.201Z" fill="#E0861A"/>
<path d="M63.5835 69.168V62.2746H62.1685V69.168H63.5835ZM63.5835 61.2239V59.917H62.1685V61.2239H63.5835Z" fill="#9F3A0D"/>
<path d="M66.3715 69.168V63.7609C66.54 63.6413 66.6958 63.5388 66.839 63.4534C66.9822 63.368 67.1296 63.3253 67.2812 63.3253C67.4328 63.3253 67.5549 63.368 67.6476 63.4534C67.7402 63.5303 67.7866 63.6541 67.7866 63.825V69.168H69.2016V63.5943C69.2016 63.1416 69.0963 62.7871 68.8857 62.5309C68.6836 62.2746 68.393 62.1465 68.014 62.1465C67.8118 62.1465 67.635 62.1678 67.4833 62.2105C67.3317 62.2447 67.1928 62.296 67.0664 62.3643C66.9401 62.4326 66.8179 62.518 66.7 62.6206C66.5821 62.7231 66.4474 62.8384 66.2957 62.9665V62.2746H64.9565V69.168H66.3715Z" fill="#9F3A0D"/>
<path d="M72.3517 66.8873H72.3264L71.4547 62.2746H70.0144L71.6568 69.168H73.0339L74.6764 62.2746H73.2361L72.3517 66.8873Z" fill="#9F3A0D"/>
<path d="M76.82 64.8116V64.4528C76.82 64.0513 76.8874 63.7652 77.0221 63.5943C77.1569 63.415 77.3506 63.3253 77.6033 63.3253C77.856 63.3253 78.0497 63.415 78.1845 63.5943C78.3192 63.7652 78.3866 64.0513 78.3866 64.4528V64.8116H76.82ZM79.8016 64.7091C79.8016 64.3332 79.7637 63.9873 79.6879 63.6712C79.6121 63.3552 79.4858 63.0861 79.3089 62.864C79.132 62.6334 78.9046 62.4583 78.6267 62.3387C78.3487 62.2105 78.0076 62.1465 77.6033 62.1465C77.199 62.1465 76.8579 62.2105 76.58 62.3387C76.302 62.4583 76.0746 62.6334 75.8977 62.864C75.7208 63.0861 75.5945 63.3552 75.5187 63.6712C75.4429 63.9873 75.405 64.3332 75.405 64.7091V66.7336C75.405 67.1094 75.4429 67.4554 75.5187 67.7714C75.5945 68.0875 75.7208 68.3608 75.8977 68.5914C76.0746 68.8135 76.302 68.9887 76.58 69.1168C76.8579 69.2364 77.199 69.2962 77.6033 69.2962C77.9992 69.2962 78.3319 69.2364 78.6014 69.1168C78.8793 68.9972 79.1068 68.8306 79.2836 68.6171C79.4605 68.395 79.5869 68.1344 79.6627 67.8355C79.7469 67.5365 79.7932 67.2034 79.8016 66.8361H78.3866V66.9898C78.3866 67.3913 78.3192 67.6817 78.1845 67.8611C78.0497 68.0319 77.856 68.1174 77.6033 68.1174C77.3506 68.1174 77.1569 68.0319 77.0221 67.8611C76.8874 67.6817 76.82 67.3913 76.82 66.9898V65.9904H79.8016V64.7091Z" fill="#9F3A0D"/>
<path d="M84.8721 63.9787C84.7626 63.4406 84.5268 63.0007 84.1646 62.659C83.8109 62.3173 83.356 62.1465 82.8001 62.1465C82.5306 62.1465 82.2821 62.1934 82.0547 62.2874C81.8273 62.3728 81.6252 62.4967 81.4483 62.659C81.2798 62.8213 81.1451 63.0178 81.044 63.2484C80.9514 63.4705 80.905 63.7182 80.905 63.9916C80.905 64.3076 80.9682 64.5852 81.0945 64.8244C81.2293 65.0636 81.3936 65.2814 81.5873 65.4779C81.7894 65.6743 82.0042 65.8537 82.2316 66.016C82.459 66.1783 82.6696 66.3363 82.8633 66.4901C83.0655 66.6439 83.2297 66.8062 83.356 66.977C83.4908 67.1393 83.5582 67.3187 83.5582 67.5151C83.5582 67.7116 83.4992 67.8611 83.3813 67.9636C83.2634 68.0661 83.1118 68.1174 82.9265 68.1174C82.6064 68.1174 82.379 68.0106 82.2442 67.797C82.1179 67.5749 82.0337 67.3187 81.9916 67.0283L80.7534 67.3742C80.8629 67.9807 81.0945 68.4548 81.4483 68.7965C81.8021 69.1296 82.2906 69.2962 82.9139 69.2962C83.2002 69.2962 83.4655 69.2577 83.7098 69.1809C83.9541 69.104 84.1646 68.9887 84.3415 68.8349C84.5184 68.6726 84.6531 68.4761 84.7458 68.2455C84.8469 68.0149 84.8974 67.7458 84.8974 67.4383C84.8974 67.0966 84.83 66.7976 84.6953 66.5414C84.5689 66.2766 84.4047 66.0459 84.2025 65.8494C84.0088 65.6444 83.7982 65.4608 83.5708 65.2985C83.3434 65.1276 83.1286 64.9696 82.9265 64.8244C82.7328 64.6706 82.5685 64.5212 82.4338 64.3759C82.3074 64.2222 82.2442 64.0556 82.2442 63.8762C82.2442 63.6969 82.299 63.5602 82.4085 63.4662C82.5264 63.3723 82.678 63.3253 82.8633 63.3253C83.3013 63.3253 83.5708 63.6114 83.6719 64.1837L84.8721 63.9787Z" fill="#9F3A0D"/>
<path d="M86.2325 63.4534V67.7458C86.2325 68.2754 86.3756 68.6683 86.662 68.9246C86.9484 69.1723 87.3569 69.2962 87.8875 69.2962C88.0644 69.2962 88.2034 69.2876 88.3044 69.2705C88.4055 69.262 88.5024 69.2449 88.595 69.2193V67.9892H88.1276C87.8075 67.9892 87.6475 67.8013 87.6475 67.4255V63.4534H88.595V62.2746H87.6475V60.4167H86.2325V62.2746H85.4491V63.4534H86.2325Z" fill="#9F3A0D"/>
<path d="M90.8606 64.8116V64.4528C90.8606 64.0513 90.9279 63.7652 91.0627 63.5943C91.1975 63.415 91.3912 63.3253 91.6439 63.3253C91.8966 63.3253 92.0903 63.415 92.225 63.5943C92.3598 63.7652 92.4272 64.0513 92.4272 64.4528V64.8116H90.8606ZM93.8422 64.7091C93.8422 64.3332 93.8043 63.9873 93.7285 63.6712C93.6527 63.3552 93.5263 63.0861 93.3495 62.864C93.1726 62.6334 92.9452 62.4583 92.6672 62.3387C92.3893 62.2105 92.0482 62.1465 91.6439 62.1465C91.2396 62.1465 90.8985 62.2105 90.6205 62.3387C90.3426 62.4583 90.1152 62.6334 89.9383 62.864C89.7614 63.0861 89.6351 63.3552 89.5593 63.6712C89.4835 63.9873 89.4456 64.3332 89.4456 64.7091V66.7336C89.4456 67.1094 89.4835 67.4554 89.5593 67.7714C89.6351 68.0875 89.7614 68.3608 89.9383 68.5914C90.1152 68.8135 90.3426 68.9887 90.6205 69.1168C90.8985 69.2364 91.2396 69.2962 91.6439 69.2962C92.0397 69.2962 92.3724 69.2364 92.642 69.1168C92.9199 68.9972 93.1473 68.8306 93.3242 68.6171C93.5011 68.395 93.6274 68.1344 93.7032 67.8355C93.7875 67.5365 93.8338 67.2034 93.8422 66.8361H92.4272V66.9898C92.4272 67.3913 92.3598 67.6817 92.225 67.8611C92.0903 68.0319 91.8966 68.1174 91.6439 68.1174C91.3912 68.1174 91.1975 68.0319 91.0627 67.8611C90.9279 67.6817 90.8606 67.3913 90.8606 66.9898V65.9904H93.8422V64.7091Z" fill="#9F3A0D"/>
<path d="M96.5501 69.168V64.4272C96.5501 64.1197 96.647 63.889 96.8407 63.7353C97.0344 63.5815 97.2534 63.5047 97.4977 63.5047C97.7082 63.5047 97.8809 63.5217 98.0157 63.5559C98.1504 63.5815 98.281 63.6114 98.4073 63.6456V62.1465H98.1168C97.7798 62.1465 97.4682 62.2276 97.1818 62.3899C96.9039 62.5522 96.6807 62.7829 96.5122 63.0818H96.487V62.2746H95.1351V69.168H96.5501Z" fill="#9F3A0D"/>
<path d="M100.682 64.8116V64.4528C100.682 64.0513 100.749 63.7652 100.884 63.5943C101.018 63.415 101.212 63.3253 101.465 63.3253C101.718 63.3253 101.911 63.415 102.046 63.5943C102.181 63.7652 102.248 64.0513 102.248 64.4528V64.8116H100.682ZM103.663 64.7091C103.663 64.3332 103.625 63.9873 103.549 63.6712C103.474 63.3552 103.347 63.0861 103.17 62.864C102.994 62.6334 102.766 62.4583 102.488 62.3387C102.21 62.2105 101.869 62.1465 101.465 62.1465C101.061 62.1465 100.719 62.2105 100.442 62.3387C100.164 62.4583 99.9361 62.6334 99.7593 62.864C99.5824 63.0861 99.4561 63.3552 99.3803 63.6712C99.3044 63.9873 99.2665 64.3332 99.2665 64.7091V66.7336C99.2665 67.1094 99.3044 67.4554 99.3803 67.7714C99.4561 68.0875 99.5824 68.3608 99.7593 68.5914C99.9361 68.8135 100.164 68.9887 100.442 69.1168C100.719 69.2364 101.061 69.2962 101.465 69.2962C101.861 69.2962 102.193 69.2364 102.463 69.1168C102.741 68.9972 102.968 68.8306 103.145 68.6171C103.322 68.395 103.448 68.1344 103.524 67.8355C103.608 67.5365 103.655 67.2034 103.663 66.8361H102.248V66.9898C102.248 67.3913 102.181 67.6817 102.046 67.8611C101.911 68.0319 101.718 68.1174 101.465 68.1174C101.212 68.1174 101.018 68.0319 100.884 67.8611C100.749 67.6817 100.682 67.3913 100.682 66.9898V65.9904H103.663V64.7091Z" fill="#9F3A0D"/>
<path d="M106.371 69.168V63.7609C106.54 63.6413 106.695 63.5388 106.839 63.4534C106.982 63.368 107.129 63.3253 107.281 63.3253C107.432 63.3253 107.555 63.368 107.647 63.4534C107.74 63.5303 107.786 63.6541 107.786 63.825V69.168H109.201V63.5943C109.201 63.1416 109.096 62.7871 108.885 62.5309C108.683 62.2746 108.393 62.1465 108.014 62.1465C107.811 62.1465 107.635 62.1678 107.483 62.2105C107.331 62.2447 107.192 62.296 107.066 62.3643C106.94 62.4326 106.818 62.518 106.7 62.6206C106.582 62.7231 106.447 62.8384 106.295 62.9665V62.2746H104.956V69.168H106.371Z" fill="#9F3A0D"/>
<path d="M117.599 69.168V62.2746H116.184V69.168H117.599ZM117.599 61.2239V59.917H116.184V61.2239H117.599Z" fill="#9F3A0D"/>
<path d="M120.387 69.168V63.7609C120.555 63.6413 120.711 63.5388 120.854 63.4534C120.998 63.368 121.145 63.3253 121.297 63.3253C121.448 63.3253 121.57 63.368 121.663 63.4534C121.756 63.5303 121.802 63.6541 121.802 63.825V69.168H123.217V63.5943C123.217 63.1416 123.112 62.7871 122.901 62.5309C122.699 62.2746 122.408 62.1465 122.029 62.1465C121.827 62.1465 121.65 62.1678 121.499 62.2105C121.347 62.2447 121.208 62.296 121.082 62.3643C120.956 62.4326 120.833 62.518 120.715 62.6206C120.598 62.7231 120.463 62.8384 120.311 62.9665V62.2746H118.972V69.168H120.387Z" fill="#9F3A0D"/>
<path d="M128.363 63.9787C128.254 63.4406 128.018 63.0007 127.656 62.659C127.302 62.3173 126.847 62.1465 126.291 62.1465C126.022 62.1465 125.773 62.1934 125.546 62.2874C125.319 62.3728 125.116 62.4967 124.94 62.659C124.771 62.8213 124.636 63.0178 124.535 63.2484C124.443 63.4705 124.396 63.7182 124.396 63.9916C124.396 64.3076 124.459 64.5852 124.586 64.8244C124.721 65.0636 124.885 65.2814 125.078 65.4779C125.281 65.6743 125.495 65.8537 125.723 66.016C125.95 66.1783 126.161 66.3363 126.355 66.4901C126.557 66.6439 126.721 66.8062 126.847 66.977C126.982 67.1393 127.049 67.3187 127.049 67.5151C127.049 67.7116 126.99 67.8611 126.873 67.9636C126.755 68.0661 126.603 68.1174 126.418 68.1174C126.098 68.1174 125.87 68.0106 125.735 67.797C125.609 67.5749 125.525 67.3187 125.483 67.0283L124.245 67.3742C124.354 67.9807 124.586 68.4548 124.94 68.7965C125.293 69.1296 125.782 69.2962 126.405 69.2962C126.691 69.2962 126.957 69.2577 127.201 69.1809C127.445 69.104 127.656 68.9887 127.833 68.8349C128.01 68.6726 128.144 68.4761 128.237 68.2455C128.338 68.0149 128.389 67.7458 128.389 67.4383C128.389 67.0966 128.321 66.7976 128.186 66.5414C128.06 66.2766 127.896 66.0459 127.694 65.8494C127.5 65.6444 127.289 65.4608 127.062 65.2985C126.835 65.1276 126.62 64.9696 126.418 64.8244C126.224 64.6706 126.06 64.5212 125.925 64.3759C125.799 64.2222 125.735 64.0556 125.735 63.8762C125.735 63.6969 125.79 63.5602 125.9 63.4662C126.018 63.3723 126.169 63.3253 126.355 63.3253C126.793 63.3253 127.062 63.6114 127.163 64.1837L128.363 63.9787Z" fill="#9F3A0D"/>
<path d="M129.496 62.2746V71.3463H130.911V68.5786C131.046 68.6982 131.168 68.8007 131.278 68.8861C131.396 68.9716 131.509 69.0484 131.619 69.1168C131.728 69.1766 131.842 69.2193 131.96 69.2449C132.086 69.2791 132.225 69.2962 132.377 69.2962C132.823 69.2962 133.173 69.1339 133.425 68.8093C133.687 68.4847 133.817 68.0063 133.817 67.3742V64.0684C133.817 63.4363 133.687 62.958 133.425 62.6334C133.173 62.3088 132.823 62.1465 132.377 62.1465C132.023 62.1465 131.741 62.2148 131.53 62.3515C131.32 62.4796 131.097 62.6932 130.861 62.9921H130.835V62.2746H129.496ZM130.911 63.684C131.054 63.5815 131.189 63.4961 131.316 63.4278C131.442 63.3594 131.577 63.3253 131.72 63.3253C131.812 63.3253 131.901 63.3424 131.985 63.3765C132.069 63.4022 132.141 63.4577 132.2 63.5431C132.267 63.6285 132.318 63.7438 132.352 63.889C132.385 64.0257 132.402 64.2094 132.402 64.44V67.0026C132.402 67.2333 132.385 67.4212 132.352 67.5664C132.318 67.7031 132.267 67.8141 132.2 67.8995C132.141 67.985 132.069 68.0448 131.985 68.0789C131.901 68.1046 131.812 68.1174 131.72 68.1174C131.577 68.1174 131.442 68.0832 131.316 68.0149C131.189 67.9465 131.054 67.8611 130.911 67.7586V63.684Z" fill="#9F3A0D"/>
<path d="M136.538 69.168V62.2746H135.123V69.168H136.538ZM136.538 61.2239V59.917H135.123V61.2239H136.538Z" fill="#9F3A0D"/>
<path d="M139.326 69.168V64.4272C139.326 64.1197 139.423 63.889 139.616 63.7353C139.81 63.5815 140.029 63.5047 140.273 63.5047C140.484 63.5047 140.657 63.5217 140.791 63.5559C140.926 63.5815 141.057 63.6114 141.183 63.6456V62.1465H140.892C140.555 62.1465 140.244 62.2276 139.957 62.3899C139.679 62.5522 139.456 62.7829 139.288 63.0818H139.263V62.2746H137.911V69.168H139.326Z" fill="#9F3A0D"/>
<path d="M143.457 64.8116V64.4528C143.457 64.0513 143.525 63.7652 143.659 63.5943C143.794 63.415 143.988 63.3253 144.24 63.3253C144.493 63.3253 144.687 63.415 144.822 63.5943C144.956 63.7652 145.024 64.0513 145.024 64.4528V64.8116H143.457ZM146.439 64.7091C146.439 64.3332 146.401 63.9873 146.325 63.6712C146.249 63.3552 146.123 63.0861 145.946 62.864C145.769 62.6334 145.542 62.4583 145.264 62.3387C144.986 62.2105 144.645 62.1465 144.24 62.1465C143.836 62.1465 143.495 62.2105 143.217 62.3387C142.939 62.4583 142.712 62.6334 142.535 62.864C142.358 63.0861 142.232 63.3552 142.156 63.6712C142.08 63.9873 142.042 64.3332 142.042 64.7091V66.7336C142.042 67.1094 142.08 67.4554 142.156 67.7714C142.232 68.0875 142.358 68.3608 142.535 68.5914C142.712 68.8135 142.939 68.9887 143.217 69.1168C143.495 69.2364 143.836 69.2962 144.24 69.2962C144.636 69.2962 144.969 69.2364 145.239 69.1168C145.517 68.9972 145.744 68.8306 145.921 68.6171C146.098 68.395 146.224 68.1344 146.3 67.8355C146.384 67.5365 146.43 67.2034 146.439 66.8361H145.024V66.9898C145.024 67.3913 144.956 67.6817 144.822 67.8611C144.687 68.0319 144.493 68.1174 144.24 68.1174C143.988 68.1174 143.794 68.0319 143.659 67.8611C143.525 67.6817 143.457 67.3913 143.457 66.9898V65.9904H146.439V64.7091Z" fill="#9F3A0D"/>
<path d="M149.147 69.168V64.4272C149.147 64.1197 149.244 63.889 149.437 63.7353C149.631 63.5815 149.85 63.5047 150.094 63.5047C150.305 63.5047 150.478 63.5217 150.612 63.5559C150.747 63.5815 150.878 63.6114 151.004 63.6456V62.1465H150.713C150.376 62.1465 150.065 62.2276 149.778 62.3899C149.5 62.5522 149.277 62.7829 149.109 63.0818H149.084V62.2746H147.732V69.168H149.147Z" fill="#9F3A0D"/>
<path d="M153.278 64.8116V64.4528C153.278 64.0513 153.346 63.7652 153.48 63.5943C153.615 63.415 153.809 63.3253 154.061 63.3253C154.314 63.3253 154.508 63.415 154.643 63.5943C154.777 63.7652 154.845 64.0513 154.845 64.4528V64.8116H153.278ZM156.26 64.7091C156.26 64.3332 156.222 63.9873 156.146 63.6712C156.07 63.3552 155.944 63.0861 155.767 62.864C155.59 62.6334 155.363 62.4583 155.085 62.3387C154.807 62.2105 154.466 62.1465 154.061 62.1465C153.657 62.1465 153.316 62.2105 153.038 62.3387C152.76 62.4583 152.533 62.6334 152.356 62.864C152.179 63.0861 152.053 63.3552 151.977 63.6712C151.901 63.9873 151.863 64.3332 151.863 64.7091V66.7336C151.863 67.1094 151.901 67.4554 151.977 67.7714C152.053 68.0875 152.179 68.3608 152.356 68.5914C152.533 68.8135 152.76 68.9887 153.038 69.1168C153.316 69.2364 153.657 69.2962 154.061 69.2962C154.457 69.2962 154.79 69.2364 155.06 69.1168C155.338 68.9972 155.565 68.8306 155.742 68.6171C155.919 68.395 156.045 68.1344 156.121 67.8355C156.205 67.5365 156.251 67.2034 156.26 66.8361H154.845V66.9898C154.845 67.3913 154.777 67.6817 154.643 67.8611C154.508 68.0319 154.314 68.1174 154.061 68.1174C153.809 68.1174 153.615 68.0319 153.48 67.8611C153.346 67.6817 153.278 67.3913 153.278 66.9898V65.9904H156.26V64.7091Z" fill="#9F3A0D"/>
<path d="M158.968 69.168V63.7609C159.136 63.6413 159.292 63.5388 159.435 63.4534C159.578 63.368 159.726 63.3253 159.877 63.3253C160.029 63.3253 160.151 63.368 160.244 63.4534C160.336 63.5303 160.383 63.6541 160.383 63.825V69.168H161.798V63.5943C161.798 63.1416 161.692 62.7871 161.482 62.5309C161.28 62.2746 160.989 62.1465 160.61 62.1465C160.408 62.1465 160.231 62.1678 160.08 62.2105C159.928 62.2447 159.789 62.296 159.663 62.3643C159.536 62.4326 159.414 62.518 159.296 62.6206C159.178 62.7231 159.044 62.8384 158.892 62.9665V62.2746H157.553V69.168H158.968Z" fill="#9F3A0D"/>
<path d="M170.196 69.168V62.2746H168.781V69.168H170.196ZM170.196 61.2239V59.917H168.781V61.2239H170.196Z" fill="#9F3A0D"/>
<path d="M172.984 69.168V63.7609C173.152 63.6413 173.308 63.5388 173.451 63.4534C173.594 63.368 173.742 63.3253 173.893 63.3253C174.045 63.3253 174.167 63.368 174.26 63.4534C174.352 63.5303 174.399 63.6541 174.399 63.825V69.168H175.814V63.5943C175.814 63.1416 175.708 62.7871 175.498 62.5309C175.296 62.2746 175.005 62.1465 174.626 62.1465C174.424 62.1465 174.247 62.1678 174.095 62.2105C173.944 62.2447 173.805 62.296 173.678 62.3643C173.552 62.4326 173.43 62.518 173.312 62.6206C173.194 62.7231 173.059 62.8384 172.908 62.9665V62.2746H171.569V69.168H172.984Z" fill="#9F3A0D"/>
<path d="M178.597 69.168V63.7609C178.766 63.6413 178.922 63.5388 179.065 63.4534C179.208 63.368 179.355 63.3253 179.507 63.3253C179.659 63.3253 179.781 63.368 179.873 63.4534C179.966 63.5303 180.012 63.6541 180.012 63.825V69.168H181.427V63.5943C181.427 63.1416 181.322 62.7871 181.112 62.5309C180.909 62.2746 180.619 62.1465 180.24 62.1465C180.038 62.1465 179.861 62.1678 179.709 62.2105C179.558 62.2447 179.419 62.296 179.292 62.3643C179.166 62.4326 179.044 62.518 178.926 62.6206C178.808 62.7231 178.673 62.8384 178.522 62.9665V62.2746H177.182V69.168H178.597Z" fill="#9F3A0D"/>
<path d="M185.702 66.9898C185.702 67.3913 185.635 67.6817 185.5 67.8611C185.365 68.0319 185.171 68.1174 184.919 68.1174C184.666 68.1174 184.472 68.0319 184.337 67.8611C184.203 67.6817 184.135 67.3913 184.135 66.9898V64.4528C184.135 64.0513 184.203 63.7652 184.337 63.5943C184.472 63.415 184.666 63.3253 184.919 63.3253C185.171 63.3253 185.365 63.415 185.5 63.5943C185.635 63.7652 185.702 64.0513 185.702 64.4528V66.9898ZM182.72 66.7336C182.72 67.1094 182.758 67.4554 182.834 67.7714C182.91 68.0875 183.036 68.3608 183.213 68.5914C183.39 68.8135 183.617 68.9887 183.895 69.1168C184.173 69.2364 184.514 69.2962 184.919 69.2962C185.323 69.2962 185.664 69.2364 185.942 69.1168C186.22 68.9887 186.447 68.8135 186.624 68.5914C186.801 68.3608 186.927 68.0875 187.003 67.7714C187.079 67.4554 187.117 67.1094 187.117 66.7336V64.7091C187.117 64.3332 187.079 63.9873 187.003 63.6712C186.927 63.3552 186.801 63.0861 186.624 62.864C186.447 62.6334 186.22 62.4583 185.942 62.3387C185.664 62.2105 185.323 62.1465 184.919 62.1465C184.514 62.1465 184.173 62.2105 183.895 62.3387C183.617 62.4583 183.39 62.6334 183.213 62.864C183.036 63.0861 182.91 63.3552 182.834 63.6712C182.758 63.9873 182.72 64.3332 182.72 64.7091V66.7336Z" fill="#9F3A0D"/>
<path d="M190.191 66.8873H190.166L189.294 62.2746H187.854L189.496 69.168H190.874L192.516 62.2746H191.076L190.191 66.8873Z" fill="#9F3A0D"/>
<path d="M194.66 64.8116V64.4528C194.66 64.0513 194.727 63.7652 194.862 63.5943C194.996 63.415 195.19 63.3253 195.443 63.3253C195.696 63.3253 195.889 63.415 196.024 63.5943C196.159 63.7652 196.226 64.0513 196.226 64.4528V64.8116H194.66ZM197.641 64.7091C197.641 64.3332 197.603 63.9873 197.528 63.6712C197.452 63.3552 197.325 63.0861 197.148 62.864C196.972 62.6334 196.744 62.4583 196.466 62.3387C196.188 62.2105 195.847 62.1465 195.443 62.1465C195.039 62.1465 194.697 62.2105 194.42 62.3387C194.142 62.4583 193.914 62.6334 193.737 62.864C193.56 63.0861 193.434 63.3552 193.358 63.6712C193.282 63.9873 193.245 64.3332 193.245 64.7091V66.7336C193.245 67.1094 193.282 67.4554 193.358 67.7714C193.434 68.0875 193.56 68.3608 193.737 68.5914C193.914 68.8135 194.142 68.9887 194.42 69.1168C194.697 69.2364 195.039 69.2962 195.443 69.2962C195.839 69.2962 196.171 69.2364 196.441 69.1168C196.719 68.9972 196.946 68.8306 197.123 68.6171C197.3 68.395 197.426 68.1344 197.502 67.8355C197.586 67.5365 197.633 67.2034 197.641 66.8361H196.226V66.9898C196.226 67.3913 196.159 67.6817 196.024 67.8611C195.889 68.0319 195.696 68.1174 195.443 68.1174C195.19 68.1174 194.996 68.0319 194.862 67.8611C194.727 67.6817 194.66 67.3913 194.66 66.9898V65.9904H197.641V64.7091Z" fill="#9F3A0D"/>
<path d="M200.349 69.168V64.4272C200.349 64.1197 200.446 63.889 200.64 63.7353C200.833 63.5815 201.052 63.5047 201.297 63.5047C201.507 63.5047 201.68 63.5217 201.815 63.5559C201.949 63.5815 202.08 63.6114 202.206 63.6456V62.1465H201.916C201.579 62.1465 201.267 62.2276 200.981 62.3899C200.703 62.5522 200.48 62.7829 200.311 63.0818H200.286V62.2746H198.934V69.168H200.349Z" fill="#9F3A0D"/>
<path d="M204.481 64.8116V64.4528C204.481 64.0513 204.548 63.7652 204.683 63.5943C204.817 63.415 205.011 63.3253 205.264 63.3253C205.517 63.3253 205.71 63.415 205.845 63.5943C205.98 63.7652 206.047 64.0513 206.047 64.4528V64.8116H204.481ZM207.462 64.7091C207.462 64.3332 207.424 63.9873 207.349 63.6712C207.273 63.3552 207.146 63.0861 206.969 62.864C206.793 62.6334 206.565 62.4583 206.287 62.3387C206.009 62.2105 205.668 62.1465 205.264 62.1465C204.86 62.1465 204.518 62.2105 204.241 62.3387C203.963 62.4583 203.735 62.6334 203.558 62.864C203.381 63.0861 203.255 63.3552 203.179 63.6712C203.103 63.9873 203.066 64.3332 203.066 64.7091V66.7336C203.066 67.1094 203.103 67.4554 203.179 67.7714C203.255 68.0875 203.381 68.3608 203.558 68.5914C203.735 68.8135 203.963 68.9887 204.241 69.1168C204.518 69.2364 204.86 69.2962 205.264 69.2962C205.66 69.2962 205.992 69.2364 206.262 69.1168C206.54 68.9972 206.767 68.8306 206.944 68.6171C207.121 68.395 207.247 68.1344 207.323 67.8355C207.407 67.5365 207.454 67.2034 207.462 66.8361H206.047V66.9898C206.047 67.3913 205.98 67.6817 205.845 67.8611C205.71 68.0319 205.517 68.1174 205.264 68.1174C205.011 68.1174 204.817 68.0319 204.683 67.8611C204.548 67.6817 204.481 67.3913 204.481 66.9898V65.9904H207.462V64.7091Z" fill="#9F3A0D"/>
<path d="M210.17 69.168V63.7609C210.339 63.6413 210.494 63.5388 210.638 63.4534C210.781 63.368 210.928 63.3253 211.08 63.3253C211.231 63.3253 211.354 63.368 211.446 63.4534C211.539 63.5303 211.585 63.6541 211.585 63.825V69.168H213V63.5943C213 63.1416 212.895 62.7871 212.684 62.5309C212.482 62.2746 212.192 62.1465 211.813 62.1465C211.61 62.1465 211.434 62.1678 211.282 62.2105C211.13 62.2447 210.991 62.296 210.865 62.3643C210.739 62.4326 210.617 62.518 210.499 62.6206C210.381 62.7231 210.246 62.8384 210.094 62.9665V62.2746H208.755V69.168H210.17Z" fill="#9F3A0D"/>
</svg>
