<svg width="213" height="72" viewBox="0 0 213 72" fill="none" xmlns="http://www.w3.org/2000/svg">
<path d="M204.938 43.0225V1.71321H197.727V14.7546C194.292 12.2372 192.482 11.3281 190.516 11.3281C184.913 11.3281 182.649 15.6986 182.649 23.679V31.2311C182.649 39.2464 184.939 43.5906 190.516 43.5906C193.723 43.5906 196.923 41.1869 198.181 39.2202H198.295V42.9962L204.938 43.0225ZM197.727 36.0298C196.293 37.5682 194.982 38.2587 193.356 38.2587C191.416 38.2587 189.86 37 189.86 30.8202V24.1422C189.86 17.9624 191.46 16.7038 193.356 16.7038C194.965 16.7038 196.276 17.3855 197.727 18.9327V36.0298ZM162.554 43.0225V19.4921C164.092 18.1198 165.753 16.6863 167.239 16.6863C169.188 16.6863 169.861 18.0586 169.861 20.1214V43.005H177.063V19.3348C177.063 13.5571 174.773 11.3281 170.368 11.3281C167.396 11.3281 164.931 13.155 162.3 15.4451V11.8963H155.307V43.0225H162.554ZM134.294 23.3381V21.5899C134.294 18.8453 135.614 17.1233 138.534 17.1233C141.453 17.1233 142.764 18.8715 142.764 21.5899V23.3381H134.294ZM149.975 29.177V21.9133C149.975 15.5587 145.229 11.3281 138.534 11.3281C131.663 11.3281 127.092 15.5587 127.092 22.3678V32.5509C127.092 39.36 131.663 43.5906 138.534 43.5906C145.797 43.5906 149.635 39.8146 149.975 33.4075H142.764C142.764 35.8113 141.567 37.778 138.534 37.778C136.13 37.778 134.294 36.4056 134.294 33.3114V29.177H149.975ZM121.603 43.0225V1.71321H114.391V14.7546C110.956 12.2372 109.147 11.3281 107.18 11.3281C101.577 11.3281 99.3135 15.6986 99.3135 23.679V31.2311C99.3135 39.2464 101.604 43.5906 107.18 43.5906C110.388 43.5906 113.587 41.1869 114.846 39.2202H114.968V42.9962L121.603 43.0225ZM114.391 36.0298C112.958 37.5682 111.647 38.2587 110.021 38.2587C108.072 38.2587 106.472 37 106.472 30.8202V24.1422C106.472 17.9624 108.072 16.7038 110.021 16.7038C111.621 16.7038 112.932 17.3855 114.391 18.9327V36.0298ZM93.326 0H86.1148V6.52067H93.326V0ZM86.1148 43.0225H93.326V11.8963H86.1148V43.0225ZM64.6648 11.8963H57.4536L65.9235 43.0225H73.0123L81.4735 11.8963H74.2623L69.516 31.9216H69.4023L64.6648 11.8963ZM52.8821 0H45.636V6.52067H52.8472L52.8821 0ZM45.636 43.0225H52.8472V11.8963H45.636V43.0225ZM33.4949 43.0225V21.7385C33.4897 21.2763 33.5788 20.8178 33.7568 20.3912C33.9348 19.9645 34.1979 19.5787 34.53 19.2572C34.8622 18.9357 35.2564 18.6853 35.6886 18.5213C36.1208 18.3573 36.5819 18.2831 37.0437 18.3033C38.3532 18.3974 39.6439 18.6679 40.8809 19.1075V11.3281C37.271 11.3281 35.0945 12.9277 33.4425 16.0132H33.3988V11.8963H26.3187V43.0225H33.4949ZM0 1.71321V8.70588H9.21286V43.0399H17.0796V8.6884H26.3187V1.69572L0 1.71321Z" fill="#E0861A"/>
<path d="M208.201 36.7122V53.2033H65.5734V43.1454H61.4756V57.3195H212.307V36.7122H208.201Z" fill="#E0861A"/>
<path d="M63.5835 69.1682V62.2747H62.1685V69.1682H63.5835ZM63.5835 61.224V59.9171H62.1685V61.224H63.5835Z" fill="#9F3A0D"/>
<path d="M66.3715 69.1682V63.761C66.54 63.6414 66.6958 63.5389 66.839 63.4535C66.9822 63.3681 67.1296 63.3254 67.2812 63.3254C67.4328 63.3254 67.5549 63.3681 67.6476 63.4535C67.7402 63.5304 67.7866 63.6543 67.7866 63.8251V69.1682H69.2016V63.5945C69.2016 63.1417 69.0963 62.7872 68.8857 62.531C68.6836 62.2747 68.393 62.1466 68.014 62.1466C67.8118 62.1466 67.6349 62.1679 67.4833 62.2107C67.3317 62.2448 67.1928 62.2961 67.0664 62.3644C66.9401 62.4327 66.8179 62.5182 66.7 62.6207C66.5821 62.7232 66.4473 62.8385 66.2957 62.9666V62.2747H64.9565V69.1682H66.3715Z" fill="#9F3A0D"/>
<path d="M72.3517 66.8874H72.3264L71.4547 62.2747H70.0144L71.6568 69.1682H73.0339L74.6764 62.2747H73.2361L72.3517 66.8874Z" fill="#9F3A0D"/>
<path d="M76.82 64.8117V64.4529C76.82 64.0515 76.8874 63.7653 77.0221 63.5945C77.1569 63.4151 77.3506 63.3254 77.6033 63.3254C77.856 63.3254 78.0497 63.4151 78.1845 63.5945C78.3192 63.7653 78.3866 64.0515 78.3866 64.4529V64.8117H76.82ZM79.8016 64.7092C79.8016 64.3334 79.7637 63.9874 79.6879 63.6713C79.6121 63.3553 79.4858 63.0862 79.3089 62.8641C79.132 62.6335 78.9046 62.4584 78.6267 62.3388C78.3487 62.2107 78.0076 62.1466 77.6033 62.1466C77.199 62.1466 76.8579 62.2107 76.5799 62.3388C76.302 62.4584 76.0746 62.6335 75.8977 62.8641C75.7208 63.0862 75.5945 63.3553 75.5187 63.6713C75.4429 63.9874 75.405 64.3334 75.405 64.7092V66.7337C75.405 67.1095 75.4429 67.4555 75.5187 67.7715C75.5945 68.0876 75.7208 68.3609 75.8977 68.5916C76.0746 68.8137 76.302 68.9888 76.5799 69.1169C76.8579 69.2365 77.199 69.2963 77.6033 69.2963C77.9992 69.2963 78.3319 69.2365 78.6014 69.1169C78.8793 68.9973 79.1068 68.8307 79.2836 68.6172C79.4605 68.3951 79.5868 68.1346 79.6627 67.8356C79.7469 67.5366 79.7932 67.2035 79.8016 66.8362H78.3866V66.9899C78.3866 67.3914 78.3192 67.6818 78.1845 67.8612C78.0497 68.0321 77.856 68.1175 77.6033 68.1175C77.3506 68.1175 77.1569 68.0321 77.0221 67.8612C76.8874 67.6818 76.82 67.3914 76.82 66.9899V65.9905H79.8016V64.7092Z" fill="#9F3A0D"/>
<path d="M84.8721 63.9789C84.7626 63.4407 84.5268 63.0008 84.1646 62.6591C83.8109 62.3174 83.356 62.1466 82.8001 62.1466C82.5306 62.1466 82.2821 62.1936 82.0547 62.2875C81.8273 62.373 81.6252 62.4968 81.4483 62.6591C81.2798 62.8214 81.1451 63.0179 81.044 63.2485C80.9514 63.4706 80.905 63.7183 80.905 63.9917C80.905 64.3077 80.9682 64.5853 81.0945 64.8245C81.2293 65.0637 81.3936 65.2815 81.5873 65.478C81.7894 65.6745 82.0042 65.8538 82.2316 66.0161C82.459 66.1784 82.6696 66.3365 82.8633 66.4902C83.0655 66.644 83.2297 66.8063 83.356 66.9771C83.4908 67.1394 83.5582 67.3188 83.5582 67.5153C83.5582 67.7117 83.4992 67.8612 83.3813 67.9637C83.2634 68.0662 83.1118 68.1175 82.9265 68.1175C82.6064 68.1175 82.379 68.0107 82.2442 67.7972C82.1179 67.5751 82.0337 67.3188 81.9916 67.0284L80.7534 67.3743C80.8629 67.9808 81.0945 68.4549 81.4483 68.7966C81.8021 69.1297 82.2906 69.2963 82.9138 69.2963C83.2002 69.2963 83.4655 69.2578 83.7098 69.181C83.9541 69.1041 84.1646 68.9888 84.3415 68.835C84.5184 68.6727 84.6531 68.4763 84.7458 68.2456C84.8469 68.015 84.8974 67.7459 84.8974 67.4384C84.8974 67.0967 84.83 66.7977 84.6952 66.5415C84.5689 66.2767 84.4047 66.046 84.2025 65.8496C84.0088 65.6446 83.7982 65.4609 83.5708 65.2986C83.3434 65.1278 83.1286 64.9697 82.9265 64.8245C82.7328 64.6708 82.5685 64.5213 82.4338 64.3761C82.3074 64.2223 82.2442 64.0557 82.2442 63.8764C82.2442 63.697 82.299 63.5603 82.4085 63.4663C82.5264 63.3724 82.678 63.3254 82.8633 63.3254C83.3013 63.3254 83.5708 63.6116 83.6719 64.1839L84.8721 63.9789Z" fill="#9F3A0D"/>
<path d="M86.2325 63.4535V67.7459C86.2325 68.2755 86.3756 68.6684 86.662 68.9247C86.9484 69.1724 87.3569 69.2963 87.8875 69.2963C88.0644 69.2963 88.2034 69.2877 88.3044 69.2707C88.4055 69.2621 88.5024 69.245 88.595 69.2194V67.9894H88.1276C87.8075 67.9894 87.6475 67.8014 87.6475 67.4256V63.4535H88.595V62.2747H87.6475V60.4168H86.2325V62.2747H85.4491V63.4535H86.2325Z" fill="#9F3A0D"/>
<path d="M90.8606 64.8117V64.4529C90.8606 64.0515 90.9279 63.7653 91.0627 63.5945C91.1975 63.4151 91.3912 63.3254 91.6439 63.3254C91.8965 63.3254 92.0903 63.4151 92.225 63.5945C92.3598 63.7653 92.4272 64.0515 92.4272 64.4529V64.8117H90.8606ZM93.8422 64.7092C93.8422 64.3334 93.8043 63.9874 93.7285 63.6713C93.6527 63.3553 93.5263 63.0862 93.3495 62.8641C93.1726 62.6335 92.9452 62.4584 92.6672 62.3388C92.3893 62.2107 92.0482 62.1466 91.6439 62.1466C91.2396 62.1466 90.8985 62.2107 90.6205 62.3388C90.3426 62.4584 90.1152 62.6335 89.9383 62.8641C89.7614 63.0862 89.6351 63.3553 89.5593 63.6713C89.4834 63.9874 89.4455 64.3334 89.4455 64.7092V66.7337C89.4455 67.1095 89.4834 67.4555 89.5593 67.7715C89.6351 68.0876 89.7614 68.3609 89.9383 68.5916C90.1152 68.8137 90.3426 68.9888 90.6205 69.1169C90.8985 69.2365 91.2396 69.2963 91.6439 69.2963C92.0397 69.2963 92.3724 69.2365 92.642 69.1169C92.9199 68.9973 93.1473 68.8307 93.3242 68.6172C93.5011 68.3951 93.6274 68.1346 93.7032 67.8356C93.7874 67.5366 93.8338 67.2035 93.8422 66.8362H92.4272V66.9899C92.4272 67.3914 92.3598 67.6818 92.225 67.8612C92.0903 68.0321 91.8965 68.1175 91.6439 68.1175C91.3912 68.1175 91.1975 68.0321 91.0627 67.8612C90.9279 67.6818 90.8606 67.3914 90.8606 66.9899V65.9905H93.8422V64.7092Z" fill="#9F3A0D"/>
<path d="M96.5501 69.1682V64.4273C96.5501 64.1198 96.647 63.8892 96.8407 63.7354C97.0344 63.5817 97.2534 63.5048 97.4977 63.5048C97.7082 63.5048 97.8809 63.5219 98.0157 63.556C98.1504 63.5817 98.281 63.6116 98.4073 63.6457V62.1466H98.1167C97.7798 62.1466 97.4682 62.2277 97.1818 62.39C96.9039 62.5523 96.6807 62.783 96.5122 63.0819H96.487V62.2747H95.1351V69.1682H96.5501Z" fill="#9F3A0D"/>
<path d="M100.682 64.8117V64.4529C100.682 64.0515 100.749 63.7653 100.884 63.5945C101.018 63.4151 101.212 63.3254 101.465 63.3254C101.718 63.3254 101.911 63.4151 102.046 63.5945C102.181 63.7653 102.248 64.0515 102.248 64.4529V64.8117H100.682ZM103.663 64.7092C103.663 64.3334 103.625 63.9874 103.549 63.6713C103.474 63.3553 103.347 63.0862 103.17 62.8641C102.994 62.6335 102.766 62.4584 102.488 62.3388C102.21 62.2107 101.869 62.1466 101.465 62.1466C101.061 62.1466 100.719 62.2107 100.442 62.3388C100.164 62.4584 99.9361 62.6335 99.7593 62.8641C99.5824 63.0862 99.4561 63.3553 99.3802 63.6713C99.3044 63.9874 99.2665 64.3334 99.2665 64.7092V66.7337C99.2665 67.1095 99.3044 67.4555 99.3802 67.7715C99.4561 68.0876 99.5824 68.3609 99.7593 68.5916C99.9361 68.8137 100.164 68.9888 100.442 69.1169C100.719 69.2365 101.061 69.2963 101.465 69.2963C101.861 69.2963 102.193 69.2365 102.463 69.1169C102.741 68.9973 102.968 68.8307 103.145 68.6172C103.322 68.3951 103.448 68.1346 103.524 67.8356C103.608 67.5366 103.655 67.2035 103.663 66.8362H102.248V66.9899C102.248 67.3914 102.181 67.6818 102.046 67.8612C101.911 68.0321 101.718 68.1175 101.465 68.1175C101.212 68.1175 101.018 68.0321 100.884 67.8612C100.749 67.6818 100.682 67.3914 100.682 66.9899V65.9905H103.663V64.7092Z" fill="#9F3A0D"/>
<path d="M106.371 69.1682V63.761C106.54 63.6414 106.695 63.5389 106.839 63.4535C106.982 63.3681 107.129 63.3254 107.281 63.3254C107.432 63.3254 107.555 63.3681 107.647 63.4535C107.74 63.5304 107.786 63.6543 107.786 63.8251V69.1682H109.201V63.5945C109.201 63.1417 109.096 62.7872 108.885 62.531C108.683 62.2747 108.393 62.1466 108.014 62.1466C107.811 62.1466 107.635 62.1679 107.483 62.2107C107.331 62.2448 107.192 62.2961 107.066 62.3644C106.94 62.4327 106.818 62.5182 106.7 62.6207C106.582 62.7232 106.447 62.8385 106.295 62.9666V62.2747H104.956V69.1682H106.371Z" fill="#9F3A0D"/>
<path d="M117.599 69.1682V62.2747H116.184V69.1682H117.599ZM117.599 61.224V59.9171H116.184V61.224H117.599Z" fill="#9F3A0D"/>
<path d="M120.387 69.1682V63.761C120.555 63.6414 120.711 63.5389 120.854 63.4535C120.998 63.3681 121.145 63.3254 121.297 63.3254C121.448 63.3254 121.57 63.3681 121.663 63.4535C121.756 63.5304 121.802 63.6543 121.802 63.8251V69.1682H123.217V63.5945C123.217 63.1417 123.112 62.7872 122.901 62.531C122.699 62.2747 122.408 62.1466 122.029 62.1466C121.827 62.1466 121.65 62.1679 121.499 62.2107C121.347 62.2448 121.208 62.2961 121.082 62.3644C120.956 62.4327 120.833 62.5182 120.715 62.6207C120.598 62.7232 120.463 62.8385 120.311 62.9666V62.2747H118.972V69.1682H120.387Z" fill="#9F3A0D"/>
<path d="M128.363 63.9789C128.254 63.4407 128.018 63.0008 127.656 62.6591C127.302 62.3174 126.847 62.1466 126.291 62.1466C126.022 62.1466 125.773 62.1936 125.546 62.2875C125.319 62.373 125.116 62.4968 124.94 62.6591C124.771 62.8214 124.636 63.0179 124.535 63.2485C124.443 63.4706 124.396 63.7183 124.396 63.9917C124.396 64.3077 124.459 64.5853 124.586 64.8245C124.721 65.0637 124.885 65.2815 125.078 65.478C125.281 65.6745 125.495 65.8538 125.723 66.0161C125.95 66.1784 126.161 66.3365 126.355 66.4902C126.557 66.644 126.721 66.8063 126.847 66.9771C126.982 67.1394 127.049 67.3188 127.049 67.5153C127.049 67.7117 126.99 67.8612 126.873 67.9637C126.755 68.0662 126.603 68.1175 126.418 68.1175C126.098 68.1175 125.87 68.0107 125.735 67.7972C125.609 67.5751 125.525 67.3188 125.483 67.0284L124.245 67.3743C124.354 67.9808 124.586 68.4549 124.94 68.7966C125.293 69.1297 125.782 69.2963 126.405 69.2963C126.691 69.2963 126.957 69.2578 127.201 69.181C127.445 69.1041 127.656 68.9888 127.833 68.835C128.01 68.6727 128.144 68.4763 128.237 68.2456C128.338 68.015 128.389 67.7459 128.389 67.4384C128.389 67.0967 128.321 66.7977 128.186 66.5415C128.06 66.2767 127.896 66.046 127.694 65.8496C127.5 65.6446 127.289 65.4609 127.062 65.2986C126.835 65.1278 126.62 64.9697 126.418 64.8245C126.224 64.6708 126.06 64.5213 125.925 64.3761C125.799 64.2223 125.735 64.0557 125.735 63.8764C125.735 63.697 125.79 63.5603 125.9 63.4663C126.018 63.3724 126.169 63.3254 126.355 63.3254C126.792 63.3254 127.062 63.6116 127.163 64.1839L128.363 63.9789Z" fill="#9F3A0D"/>
<path d="M129.496 62.2747V71.3464H130.911V68.5788C131.046 68.6983 131.168 68.8008 131.278 68.8863C131.396 68.9717 131.509 69.0486 131.619 69.1169C131.728 69.1767 131.842 69.2194 131.96 69.245C132.086 69.2792 132.225 69.2963 132.377 69.2963C132.823 69.2963 133.173 69.134 133.425 68.8094C133.687 68.4848 133.817 68.0064 133.817 67.3743V64.0686C133.817 63.4364 133.687 62.9581 133.425 62.6335C133.173 62.3089 132.823 62.1466 132.377 62.1466C132.023 62.1466 131.741 62.2149 131.53 62.3516C131.32 62.4797 131.097 62.6933 130.861 62.9923H130.835V62.2747H129.496ZM130.911 63.6842C131.054 63.5817 131.189 63.4962 131.316 63.4279C131.442 63.3596 131.577 63.3254 131.72 63.3254C131.812 63.3254 131.901 63.3425 131.985 63.3766C132.069 63.4023 132.141 63.4578 132.2 63.5432C132.267 63.6286 132.318 63.744 132.352 63.8892C132.385 64.0258 132.402 64.2095 132.402 64.4401V67.0027C132.402 67.2334 132.385 67.4213 132.352 67.5665C132.318 67.7032 132.267 67.8142 132.2 67.8997C132.141 67.9851 132.069 68.0449 131.985 68.079C131.901 68.1047 131.812 68.1175 131.72 68.1175C131.577 68.1175 131.442 68.0833 131.316 68.015C131.189 67.9466 131.054 67.8612 130.911 67.7587V63.6842Z" fill="#9F3A0D"/>
<path d="M136.538 69.1682V62.2747H135.123V69.1682H136.538ZM136.538 61.224V59.9171H135.123V61.224H136.538Z" fill="#9F3A0D"/>
<path d="M139.326 69.1682V64.4273C139.326 64.1198 139.423 63.8892 139.616 63.7354C139.81 63.5817 140.029 63.5048 140.273 63.5048C140.484 63.5048 140.657 63.5219 140.791 63.556C140.926 63.5817 141.057 63.6116 141.183 63.6457V62.1466H140.892C140.555 62.1466 140.244 62.2277 139.957 62.39C139.679 62.5523 139.456 62.783 139.288 63.0819H139.263V62.2747H137.911V69.1682H139.326Z" fill="#9F3A0D"/>
<path d="M143.457 64.8117V64.4529C143.457 64.0515 143.525 63.7653 143.659 63.5945C143.794 63.4151 143.988 63.3254 144.24 63.3254C144.493 63.3254 144.687 63.4151 144.822 63.5945C144.956 63.7653 145.024 64.0515 145.024 64.4529V64.8117H143.457ZM146.439 64.7092C146.439 64.3334 146.401 63.9874 146.325 63.6713C146.249 63.3553 146.123 63.0862 145.946 62.8641C145.769 62.6335 145.542 62.4584 145.264 62.3388C144.986 62.2107 144.645 62.1466 144.24 62.1466C143.836 62.1466 143.495 62.2107 143.217 62.3388C142.939 62.4584 142.712 62.6335 142.535 62.8641C142.358 63.0862 142.232 63.3553 142.156 63.6713C142.08 63.9874 142.042 64.3334 142.042 64.7092V66.7337C142.042 67.1095 142.08 67.4555 142.156 67.7715C142.232 68.0876 142.358 68.3609 142.535 68.5916C142.712 68.8137 142.939 68.9888 143.217 69.1169C143.495 69.2365 143.836 69.2963 144.24 69.2963C144.636 69.2963 144.969 69.2365 145.239 69.1169C145.517 68.9973 145.744 68.8307 145.921 68.6172C146.098 68.3951 146.224 68.1346 146.3 67.8356C146.384 67.5366 146.43 67.2035 146.439 66.8362H145.024V66.9899C145.024 67.3914 144.956 67.6818 144.822 67.8612C144.687 68.0321 144.493 68.1175 144.24 68.1175C143.988 68.1175 143.794 68.0321 143.659 67.8612C143.525 67.6818 143.457 67.3914 143.457 66.9899V65.9905H146.439V64.7092Z" fill="#9F3A0D"/>
<path d="M149.147 69.1682V64.4273C149.147 64.1198 149.244 63.8892 149.437 63.7354C149.631 63.5817 149.85 63.5048 150.094 63.5048C150.305 63.5048 150.478 63.5219 150.612 63.556C150.747 63.5817 150.878 63.6116 151.004 63.6457V62.1466H150.713C150.376 62.1466 150.065 62.2277 149.778 62.39C149.5 62.5523 149.277 62.783 149.109 63.0819H149.084V62.2747H147.732V69.1682H149.147Z" fill="#9F3A0D"/>
<path d="M153.278 64.8117V64.4529C153.278 64.0515 153.346 63.7653 153.48 63.5945C153.615 63.4151 153.809 63.3254 154.061 63.3254C154.314 63.3254 154.508 63.4151 154.643 63.5945C154.777 63.7653 154.845 64.0515 154.845 64.4529V64.8117H153.278ZM156.26 64.7092C156.26 64.3334 156.222 63.9874 156.146 63.6713C156.07 63.3553 155.944 63.0862 155.767 62.8641C155.59 62.6335 155.363 62.4584 155.085 62.3388C154.807 62.2107 154.466 62.1466 154.061 62.1466C153.657 62.1466 153.316 62.2107 153.038 62.3388C152.76 62.4584 152.533 62.6335 152.356 62.8641C152.179 63.0862 152.053 63.3553 151.977 63.6713C151.901 63.9874 151.863 64.3334 151.863 64.7092V66.7337C151.863 67.1095 151.901 67.4555 151.977 67.7715C152.053 68.0876 152.179 68.3609 152.356 68.5916C152.533 68.8137 152.76 68.9888 153.038 69.1169C153.316 69.2365 153.657 69.2963 154.061 69.2963C154.457 69.2963 154.79 69.2365 155.06 69.1169C155.337 68.9973 155.565 68.8307 155.742 68.6172C155.919 68.3951 156.045 68.1346 156.121 67.8356C156.205 67.5366 156.251 67.2035 156.26 66.8362H154.845V66.9899C154.845 67.3914 154.777 67.6818 154.643 67.8612C154.508 68.0321 154.314 68.1175 154.061 68.1175C153.809 68.1175 153.615 68.0321 153.48 67.8612C153.346 67.6818 153.278 67.3914 153.278 66.9899V65.9905H156.26V64.7092Z" fill="#9F3A0D"/>
<path d="M158.968 69.1682V63.761C159.136 63.6414 159.292 63.5389 159.435 63.4535C159.578 63.3681 159.726 63.3254 159.877 63.3254C160.029 63.3254 160.151 63.3681 160.244 63.4535C160.336 63.5304 160.383 63.6543 160.383 63.8251V69.1682H161.798V63.5945C161.798 63.1417 161.692 62.7872 161.482 62.531C161.28 62.2747 160.989 62.1466 160.61 62.1466C160.408 62.1466 160.231 62.1679 160.079 62.2107C159.928 62.2448 159.789 62.2961 159.663 62.3644C159.536 62.4327 159.414 62.5182 159.296 62.6207C159.178 62.7232 159.044 62.8385 158.892 62.9666V62.2747H157.553V69.1682H158.968Z" fill="#9F3A0D"/>
<path d="M170.196 69.1682V62.2747H168.781V69.1682H170.196ZM170.196 61.224V59.9171H168.781V61.224H170.196Z" fill="#9F3A0D"/>
<path d="M172.984 69.1682V63.761C173.152 63.6414 173.308 63.5389 173.451 63.4535C173.594 63.3681 173.742 63.3254 173.893 63.3254C174.045 63.3254 174.167 63.3681 174.26 63.4535C174.352 63.5304 174.399 63.6543 174.399 63.8251V69.1682H175.814V63.5945C175.814 63.1417 175.708 62.7872 175.498 62.531C175.296 62.2747 175.005 62.1466 174.626 62.1466C174.424 62.1466 174.247 62.1679 174.095 62.2107C173.944 62.2448 173.805 62.2961 173.678 62.3644C173.552 62.4327 173.43 62.5182 173.312 62.6207C173.194 62.7232 173.059 62.8385 172.908 62.9666V62.2747H171.569V69.1682H172.984Z" fill="#9F3A0D"/>
<path d="M178.597 69.1682V63.761C178.766 63.6414 178.922 63.5389 179.065 63.4535C179.208 63.3681 179.355 63.3254 179.507 63.3254C179.659 63.3254 179.781 63.3681 179.873 63.4535C179.966 63.5304 180.012 63.6543 180.012 63.8251V69.1682H181.427V63.5945C181.427 63.1417 181.322 62.7872 181.112 62.531C180.909 62.2747 180.619 62.1466 180.24 62.1466C180.038 62.1466 179.861 62.1679 179.709 62.2107C179.558 62.2448 179.419 62.2961 179.292 62.3644C179.166 62.4327 179.044 62.5182 178.926 62.6207C178.808 62.7232 178.673 62.8385 178.522 62.9666V62.2747H177.182V69.1682H178.597Z" fill="#9F3A0D"/>
<path d="M185.702 66.9899C185.702 67.3914 185.635 67.6818 185.5 67.8612C185.365 68.0321 185.171 68.1175 184.919 68.1175C184.666 68.1175 184.472 68.0321 184.337 67.8612C184.203 67.6818 184.135 67.3914 184.135 66.9899V64.4529C184.135 64.0515 184.203 63.7653 184.337 63.5945C184.472 63.4151 184.666 63.3254 184.919 63.3254C185.171 63.3254 185.365 63.4151 185.5 63.5945C185.635 63.7653 185.702 64.0515 185.702 64.4529V66.9899ZM182.72 66.7337C182.72 67.1095 182.758 67.4555 182.834 67.7715C182.91 68.0876 183.036 68.3609 183.213 68.5916C183.39 68.8137 183.617 68.9888 183.895 69.1169C184.173 69.2365 184.514 69.2963 184.919 69.2963C185.323 69.2963 185.664 69.2365 185.942 69.1169C186.22 68.9888 186.447 68.8137 186.624 68.5916C186.801 68.3609 186.927 68.0876 187.003 67.7715C187.079 67.4555 187.117 67.1095 187.117 66.7337V64.7092C187.117 64.3334 187.079 63.9874 187.003 63.6713C186.927 63.3553 186.801 63.0862 186.624 62.8641C186.447 62.6335 186.22 62.4584 185.942 62.3388C185.664 62.2107 185.323 62.1466 184.919 62.1466C184.514 62.1466 184.173 62.2107 183.895 62.3388C183.617 62.4584 183.39 62.6335 183.213 62.8641C183.036 63.0862 182.91 63.3553 182.834 63.6713C182.758 63.9874 182.72 64.3334 182.72 64.7092V66.7337Z" fill="#9F3A0D"/>
<path d="M190.191 66.8874H190.166L189.294 62.2747H187.854L189.496 69.1682H190.873L192.516 62.2747H191.076L190.191 66.8874Z" fill="#9F3A0D"/>
<path d="M194.66 64.8117V64.4529C194.66 64.0515 194.727 63.7653 194.862 63.5945C194.996 63.4151 195.19 63.3254 195.443 63.3254C195.696 63.3254 195.889 63.4151 196.024 63.5945C196.159 63.7653 196.226 64.0515 196.226 64.4529V64.8117H194.66ZM197.641 64.7092C197.641 64.3334 197.603 63.9874 197.527 63.6713C197.452 63.3553 197.325 63.0862 197.148 62.8641C196.972 62.6335 196.744 62.4584 196.466 62.3388C196.188 62.2107 195.847 62.1466 195.443 62.1466C195.039 62.1466 194.697 62.2107 194.42 62.3388C194.142 62.4584 193.914 62.6335 193.737 62.8641C193.56 63.0862 193.434 63.3553 193.358 63.6713C193.282 63.9874 193.245 64.3334 193.245 64.7092V66.7337C193.245 67.1095 193.282 67.4555 193.358 67.7715C193.434 68.0876 193.56 68.3609 193.737 68.5916C193.914 68.8137 194.142 68.9888 194.42 69.1169C194.697 69.2365 195.039 69.2963 195.443 69.2963C195.839 69.2963 196.171 69.2365 196.441 69.1169C196.719 68.9973 196.946 68.8307 197.123 68.6172C197.3 68.3951 197.426 68.1346 197.502 67.8356C197.586 67.5366 197.633 67.2035 197.641 66.8362H196.226V66.9899C196.226 67.3914 196.159 67.6818 196.024 67.8612C195.889 68.0321 195.696 68.1175 195.443 68.1175C195.19 68.1175 194.996 68.0321 194.862 67.8612C194.727 67.6818 194.66 67.3914 194.66 66.9899V65.9905H197.641V64.7092Z" fill="#9F3A0D"/>
<path d="M200.349 69.1682V64.4273C200.349 64.1198 200.446 63.8892 200.64 63.7354C200.833 63.5817 201.052 63.5048 201.297 63.5048C201.507 63.5048 201.68 63.5219 201.815 63.556C201.949 63.5817 202.08 63.6116 202.206 63.6457V62.1466H201.916C201.579 62.1466 201.267 62.2277 200.981 62.39C200.703 62.5523 200.48 62.783 200.311 63.0819H200.286V62.2747H198.934V69.1682H200.349Z" fill="#9F3A0D"/>
<path d="M204.481 64.8117V64.4529C204.481 64.0515 204.548 63.7653 204.683 63.5945C204.817 63.4151 205.011 63.3254 205.264 63.3254C205.517 63.3254 205.71 63.4151 205.845 63.5945C205.98 63.7653 206.047 64.0515 206.047 64.4529V64.8117H204.481ZM207.462 64.7092C207.462 64.3334 207.424 63.9874 207.348 63.6713C207.273 63.3553 207.146 63.0862 206.969 62.8641C206.793 62.6335 206.565 62.4584 206.287 62.3388C206.009 62.2107 205.668 62.1466 205.264 62.1466C204.86 62.1466 204.518 62.2107 204.241 62.3388C203.963 62.4584 203.735 62.6335 203.558 62.8641C203.381 63.0862 203.255 63.3553 203.179 63.6713C203.103 63.9874 203.066 64.3334 203.066 64.7092V66.7337C203.066 67.1095 203.103 67.4555 203.179 67.7715C203.255 68.0876 203.381 68.3609 203.558 68.5916C203.735 68.8137 203.963 68.9888 204.241 69.1169C204.518 69.2365 204.86 69.2963 205.264 69.2963C205.66 69.2963 205.992 69.2365 206.262 69.1169C206.54 68.9973 206.767 68.8307 206.944 68.6172C207.121 68.3951 207.247 68.1346 207.323 67.8356C207.407 67.5366 207.454 67.2035 207.462 66.8362H206.047V66.9899C206.047 67.3914 205.98 67.6818 205.845 67.8612C205.71 68.0321 205.517 68.1175 205.264 68.1175C205.011 68.1175 204.817 68.0321 204.683 67.8612C204.548 67.6818 204.481 67.3914 204.481 66.9899V65.9905H207.462V64.7092Z" fill="#9F3A0D"/>
<path d="M210.17 69.1682V63.761C210.339 63.6414 210.494 63.5389 210.638 63.4535C210.781 63.3681 210.928 63.3254 211.08 63.3254C211.231 63.3254 211.354 63.3681 211.446 63.4535C211.539 63.5304 211.585 63.6543 211.585 63.8251V69.1682H213V63.5945C213 63.1417 212.895 62.7872 212.684 62.531C212.482 62.2747 212.192 62.1466 211.813 62.1466C211.61 62.1466 211.434 62.1679 211.282 62.2107C211.13 62.2448 210.991 62.2961 210.865 62.3644C210.739 62.4327 210.617 62.5182 210.499 62.6207C210.381 62.7232 210.246 62.8385 210.094 62.9666V62.2747H208.755V69.1682H210.17Z" fill="#9F3A0D"/>
</svg>
