<svg width="57" height="57" viewBox="0 0 57 57" fill="none" xmlns="http://www.w3.org/2000/svg">
<g clip-path="url(#clip0)">
<path d="M13.8466 33.8775H23.5259C24.8623 33.8775 25.9457 32.7939 25.9457 31.4577C25.9457 30.1213 24.8623 29.0378 23.5259 29.0378H13.8466C12.5102 29.0378 11.4268 30.1213 11.4268 31.4577C11.4268 32.7939 12.5102 33.8775 13.8466 33.8775Z" fill="white"/>
<path d="M56.1568 52.869L51.1659 47.8781C52.3876 46.0169 53.1009 43.7936 53.1009 41.4057C53.1009 35.7115 49.0569 30.945 43.6904 29.8251V20.1652C43.6904 19.5233 43.4355 18.9078 42.9817 18.454L25.2364 0.708685C24.7827 0.254888 24.1671 0 23.5254 0H2.55361C1.21722 0 0.133789 1.08327 0.133789 2.41982V50.8162C0.133789 52.1525 1.21722 53.2361 2.55361 53.2361H41.2707C43.6591 53.2361 45.8826 52.5224 47.7441 51.3005L52.7349 56.2912C53.2074 56.7638 53.8267 57.0002 54.4459 57.0002C55.0652 57.0002 55.6845 56.7638 56.1568 56.2912C57.102 55.3461 57.102 53.8141 56.1568 52.869ZM48.2614 41.4057C48.2614 45.2605 45.1255 48.3964 41.2707 48.3964C37.416 48.3964 34.28 45.2603 34.28 41.4057C34.28 37.5511 37.416 34.415 41.2707 34.415C45.1254 34.415 48.2614 37.5509 48.2614 41.4057ZM25.9452 8.26175L35.4288 17.7454H25.9452V8.26175ZM4.97343 4.83964H21.1056V20.1652C21.1056 21.5016 22.189 22.585 23.5254 22.585H38.8509V29.8251C34.3562 30.763 30.7924 34.2603 29.7524 38.7171H13.8461C12.5097 38.7171 11.4263 39.8004 11.4263 41.137C11.4263 42.4732 12.5097 43.5568 13.8461 43.5568H29.64C29.9694 45.3416 30.6989 46.9874 31.7344 48.3964H4.97343V4.83964Z" fill="white"/>
</g>
<defs>
<clipPath id="clip0">
<rect width="57" height="57" fill="white"/>
</clipPath>
</defs>
</svg>
