<svg width="68" height="68" viewBox="0 0 68 68" fill="none" xmlns="http://www.w3.org/2000/svg">
<g clip-path="url(#clip0)">
<path d="M57.9062 0C54.6106 0 51.9297 2.68095 51.9297 5.97656C51.9297 7.31332 52.3864 8.53613 53.1308 9.53275L43.3835 20.1094C42.9277 19.9977 42.4586 19.9219 41.9688 19.9219C40.7453 19.9219 39.6087 20.294 38.6604 20.9273L31.7096 15.7157C31.886 15.1527 32.0078 14.5657 32.0078 13.9453C32.0078 10.6497 29.3269 7.96875 26.0312 7.96875C22.7356 7.96875 20.0547 10.6497 20.0547 13.9453C20.0547 14.5657 20.1765 15.1527 20.3529 15.7157L13.4021 20.9273C12.4538 20.294 11.3172 19.9219 10.0938 19.9219C6.79814 19.9219 4.11719 22.6028 4.11719 25.8984C4.11719 29.194 6.79814 31.875 10.0938 31.875C13.3894 31.875 16.0703 29.194 16.0703 25.8984C16.0703 25.2781 15.9485 24.691 15.7721 24.128L22.7229 18.9165C23.671 19.5497 24.8078 19.9219 26.0312 19.9219C27.2547 19.9219 28.3913 19.5497 29.3396 18.9165L36.2904 24.128C36.114 24.691 35.9922 25.2781 35.9922 25.8984C35.9922 29.194 38.6731 31.875 41.9688 31.875C45.2644 31.875 47.9453 29.194 47.9453 25.8984C47.9453 24.5617 47.4886 23.3389 46.7442 22.3423L56.4915 11.7656C56.9473 11.8773 57.4164 11.9531 57.9062 11.9531C61.2019 11.9531 63.8828 9.27217 63.8828 5.97656C63.8828 2.68095 61.2019 0 57.9062 0Z" fill="#E0861A"/>
<path d="M30.0156 31.875H22.0469C20.9457 31.875 20.0547 32.766 20.0547 33.8672V60.0312H32.0078V33.8672C32.0078 32.766 31.1168 31.875 30.0156 31.875Z" fill="#E0861A"/>
<path d="M45.9531 39.8438H37.9844C36.8832 39.8438 35.9922 40.7348 35.9922 41.8359V60.0312H47.9453V41.8359C47.9453 40.7348 47.0543 39.8438 45.9531 39.8438Z" fill="#E0861A"/>
<path d="M61.8906 23.9062H53.9219C52.8207 23.9062 51.9297 24.7973 51.9297 25.8984V60.0312H63.8828V25.8984C63.8828 24.7973 62.9918 23.9062 61.8906 23.9062Z" fill="#E0861A"/>
<path d="M14.0781 43.8281H6.10938C5.00823 43.8281 4.11719 44.7192 4.11719 45.8203V60.0312H16.0703V45.8203C16.0703 44.7192 15.1793 43.8281 14.0781 43.8281Z" fill="#E0861A"/>
<path d="M66.0078 64.0156C57.1114 64.0156 53.0282 64.0156 51.4156 64.0156C50.6785 64.0156 50.4151 64.0156 50.4171 64.0156C47.4815 64.0156 36.5552 64.0156 1.99219 64.0156C0.891039 64.0156 0 64.9067 0 66.0078C0 67.109 0.891039 68 1.99219 68C26.1003 68 43.4868 68 66.0078 68C67.109 68 68 67.109 68 66.0078C68 64.9067 67.109 64.0156 66.0078 64.0156Z" fill="#E0861A"/>
</g>
<defs>
<clipPath id="clip0">
<rect width="68" height="68" fill="white"/>
</clipPath>
</defs>
</svg>
