<svg width="68" height="68" viewBox="0 0 68 68" fill="none" xmlns="http://www.w3.org/2000/svg">
<g clip-path="url(#clip0)">
<path d="M57.3717 0C54.1307 0 51.4941 2.68095 51.4941 5.97656C51.4941 7.31332 51.9433 8.53613 52.6754 9.53275L43.0896 20.1094C42.6413 19.9977 42.18 19.9219 41.6983 19.9219C40.4951 19.9219 39.3773 20.294 38.4448 20.9273L31.6092 15.7157C31.7827 15.1527 31.9025 14.5657 31.9025 13.9453C31.9025 10.6497 29.266 7.96875 26.025 7.96875C22.784 7.96875 20.1475 10.6497 20.1475 13.9453C20.1475 14.5657 20.2672 15.1527 20.4407 15.7157L13.6051 20.9273C12.6726 20.294 11.5548 19.9219 10.3516 19.9219C7.11064 19.9219 4.47412 22.6028 4.47412 25.8984C4.47412 29.194 7.11064 31.875 10.3516 31.875C13.5926 31.875 16.2291 29.194 16.2291 25.8984C16.2291 25.2781 16.1094 24.691 15.9359 24.128L22.7714 18.9165C23.7039 19.5497 24.8218 19.9219 26.025 19.9219C27.2282 19.9219 28.3459 19.5497 29.2785 18.9165L36.114 24.128C35.9406 24.691 35.8208 25.2781 35.8208 25.8984C35.8208 29.194 38.4573 31.875 41.6983 31.875C44.9393 31.875 47.5758 29.194 47.5758 25.8984C47.5758 24.5617 47.1266 23.3389 46.3946 22.3423L55.9804 11.7656C56.4286 11.8773 56.89 11.9531 57.3717 11.9531C60.6126 11.9531 63.2492 9.27217 63.2492 5.97656C63.2492 2.68095 60.6126 0 57.3717 0Z" fill="#42BD73"/>
<path d="M29.9433 31.875H22.1066C21.0237 31.875 20.1475 32.766 20.1475 33.8672V60.0312H31.9025V33.8672C31.9025 32.766 31.0262 31.875 29.9433 31.875Z" fill="#42BD73"/>
<path d="M45.6166 39.8438H37.78C36.6971 39.8438 35.8208 40.7348 35.8208 41.8359V60.0312H47.5758V41.8359C47.5758 40.7348 46.6995 39.8438 45.6166 39.8438Z" fill="#42BD73"/>
<path d="M61.2902 23.9062H53.4536C52.3707 23.9062 51.4944 24.7973 51.4944 25.8984V60.0312H63.2494V25.8984C63.2494 24.7973 62.3731 23.9062 61.2902 23.9062Z" fill="#42BD73"/>
<path d="M14.27 43.8281H6.43329C5.35039 43.8281 4.47412 44.7192 4.47412 45.8203V60.0312H16.2291V45.8203C16.2291 44.7192 15.3529 43.8281 14.27 43.8281Z" fill="#42BD73"/>
<path d="M65.3391 64.0156C56.5901 64.0156 52.5746 64.0156 50.9887 64.0156C50.2638 64.0156 50.0048 64.0156 50.0067 64.0156C47.1198 64.0156 36.3746 64.0156 2.38446 64.0156C1.30156 64.0156 0.425293 64.9067 0.425293 66.0078C0.425293 67.109 1.30156 68 2.38446 68C26.093 68 43.1913 68 65.3391 68C66.4219 68 67.2982 67.109 67.2982 66.0078C67.2982 64.9067 66.4219 64.0156 65.3391 64.0156Z" fill="#42BD73"/>
</g>
<defs>
<clipPath id="clip0">
<rect width="66.8729" height="68" fill="white" transform="translate(0.425293)"/>
</clipPath>
</defs>
</svg>
