<svg width="66" height="66" viewBox="0 0 66 66" fill="none" xmlns="http://www.w3.org/2000/svg">
<path d="M64.625 46.75H60.5V16.5C60.5 13.4667 58.0333 10.9999 54.9999 10.9999H11C7.96666 10.9999 5.49991 13.4666 5.49991 16.5V46.75H1.37491C0.615012 46.75 0 47.3649 0 48.1249V49.5C0 52.5333 2.46662 55 5.50004 55H60.5001C63.5334 55 66 52.5333 66 49.5V48.1249C66 47.3649 65.385 46.75 64.625 46.75ZM55 46.75H41.25C41.0365 46.75 40.8256 46.7997 40.635 46.895L38.1751 48.1251H27.8249L25.365 46.895C25.1744 46.7997 24.9635 46.75 24.75 46.75H11V16.5H54.9999V46.75H55Z" fill="white"/>
</svg>
