<svg width="16" height="12" viewBox="0 0 16 12" fill="none" xmlns="http://www.w3.org/2000/svg">
<path d="M0.217918 6.03129L4.97925 10.7926C5.26975 11.0831 5.74088 11.0831 6.03138 10.7926C6.32194 10.5021 6.32194 10.031 6.03138 9.74049L2.54008 6.24918H15.256C15.6669 6.24918 16 5.91607 16 5.50523C16 5.09444 15.6669 4.76127 15.256 4.76127H2.54008L6.03126 1.26996C6.32182 0.979404 6.32182 0.508389 6.03126 0.21783C5.88604 0.0726681 5.69559 -6.10352e-05 5.5052 -6.10352e-05C5.3148 -6.10352e-05 5.12441 0.0726681 4.97913 0.21783L0.217918 4.97916C-0.0726414 5.26972 -0.0726414 5.74073 0.217918 6.03129Z" fill="#E0861A"/>
</svg>
