<svg width="31" height="25" viewBox="0 0 31 25" fill="none" xmlns="http://www.w3.org/2000/svg">
<path d="M7.11353 25C5.06683 25 3.36957 24.3474 2.02174 23.0422C0.673913 21.7369 0 20.0803 0 18.0723C0 16.8675 0.199678 15.6376 0.599034 14.3825C0.99839 13.0773 1.69726 11.4207 2.69565 9.41265L7.26328 0H14.3019L11.157 12.1235C13.3035 13.6295 14.3768 15.6375 14.3768 18.1476C14.3768 20.1054 13.6779 21.7369 12.2802 23.0422C10.8824 24.3474 9.16022 25 7.11353 25ZM23.7367 25C21.69 25 19.9928 24.3474 18.6449 23.0422C17.2971 21.7369 16.6232 20.0803 16.6232 18.0723C16.6232 16.8675 16.8229 15.6376 17.2222 14.3825C17.6216 13.0773 18.3204 11.4207 19.3188 9.41265L23.8865 0H30.9251L27.7802 12.1235C29.9267 13.6295 31 15.6375 31 18.1476C31 20.1054 30.3011 21.7369 28.9034 23.0422C27.5056 24.3474 25.7834 25 23.7367 25Z" fill="white"/>
</svg>
