<svg width="31" height="11" viewBox="0 0 31 11" fill="none" xmlns="http://www.w3.org/2000/svg">
<path d="M6.076 4.862C6.72 4.98333 7.24267 5.22133 7.644 5.576C8.05467 5.93067 8.26 6.46267 8.26 7.172C8.26 8.208 7.88667 8.94067 7.14 9.37C6.40267 9.79 5.36667 10 4.032 10H0.91V0.298H3.654C5.01667 0.298 6.05733 0.494 6.776 0.886C7.49467 1.26867 7.854 1.89867 7.854 2.776C7.854 3.34533 7.68133 3.80733 7.336 4.162C7 4.50733 6.58 4.74067 6.076 4.862ZM3.206 1.922V4.176H4.06C5.03067 4.176 5.516 3.784 5.516 3C5.516 2.608 5.38533 2.33267 5.124 2.174C4.86267 2.006 4.44733 1.922 3.878 1.922H3.206ZM4.046 8.334C4.65267 8.334 5.11 8.24533 5.418 8.068C5.73533 7.88133 5.894 7.54067 5.894 7.046C5.894 6.15 5.334 5.702 4.214 5.702H3.206V8.334H4.046ZM15.9132 0.298L15.6892 2.062H13.2952V10H10.9992V2.062H8.49319V0.298H15.9132ZM27.6457 0.298L26.0217 10H23.0397L21.8357 2.594L20.5617 10H17.6497L16.0537 0.298H18.3497L19.3157 8.264L20.6597 0.298H23.0677L24.3277 8.264L25.4617 0.298H27.6457ZM29.4613 7.704C29.8066 7.704 30.1006 7.83 30.3433 8.082C30.5953 8.32467 30.7213 8.61867 30.7213 8.964C30.7213 9.31867 30.5953 9.622 30.3433 9.874C30.1006 10.1167 29.8066 10.238 29.4613 10.238C29.1066 10.238 28.8033 10.1167 28.5513 9.874C28.3086 9.622 28.1873 9.31867 28.1873 8.964C28.1873 8.61867 28.3086 8.32467 28.5513 8.082C28.8033 7.83 29.1066 7.704 29.4613 7.704ZM29.4613 2.86C29.8066 2.86 30.1006 2.986 30.3433 3.238C30.5953 3.48067 30.7213 3.77467 30.7213 4.12C30.7213 4.47467 30.5953 4.778 30.3433 5.03C30.1006 5.27267 29.8066 5.394 29.4613 5.394C29.1066 5.394 28.8033 5.27267 28.5513 5.03C28.3086 4.778 28.1873 4.47467 28.1873 4.12C28.1873 3.77467 28.3086 3.48067 28.5513 3.238C28.8033 2.986 29.1066 2.86 29.4613 2.86Z" fill="#E0861A"/>
</svg>
