<svg width="17" height="16" viewBox="0 0 17 16" fill="none" xmlns="http://www.w3.org/2000/svg">
<path d="M8.20204 9.60153C9.09357 9.60153 9.82041 8.88325 9.82041 7.99998C9.82041 7.65132 9.70518 7.3294 9.51444 7.06645C9.22052 6.663 8.74269 6.39844 8.20301 6.39844C7.66301 6.39844 7.18551 6.66268 6.89093 7.06612C6.69954 7.32907 6.58529 7.651 6.58496 7.99966C6.58399 8.88293 7.31017 9.60153 8.20204 9.60153Z" fill="#4B4B4B"/>
<path d="M11.7339 6.04055V4.69808V4.49829L11.5312 4.49894L10.1758 4.50312L10.181 6.0457L11.7339 6.04055Z" fill="#4B4B4B"/>
<path d="M8.2019 0C3.74616 0 0.121094 3.58882 0.121094 8C0.121094 12.4109 3.74616 16 8.2019 16C12.6573 16 16.2827 12.4109 16.2827 8C16.2827 3.58882 12.658 0 8.2019 0ZM12.7976 7.06646V10.7916C12.7976 11.7619 12.0008 12.5504 11.0214 12.5504H5.38244C4.40269 12.5504 3.6062 11.7619 3.6062 10.7916V7.06646V5.20905C3.6062 4.2391 4.40269 3.45058 5.38244 3.45058H11.021C12.0008 3.45058 12.7976 4.2391 12.7976 5.20905V7.06646Z" fill="#4B4B4B"/>
<path d="M10.7154 7.99994C10.7154 9.37173 9.58786 10.4886 8.20156 10.4886C6.81527 10.4886 5.68807 9.37173 5.68807 7.99994C5.68807 7.66997 5.75447 7.35449 5.87295 7.06641H4.50098V10.7915C4.50098 11.273 4.89581 11.6629 5.38177 11.6629H11.0204C11.5057 11.6629 11.9012 11.273 11.9012 10.7915V7.06641H10.5285C10.648 7.35449 10.7154 7.66997 10.7154 7.99994Z" fill="#4B4B4B"/>
</svg>
