<svg width="16" height="13" viewBox="0 0 16 13" fill="none" xmlns="http://www.w3.org/2000/svg">
<path d="M8.00001 5.496L15.568 1.056C15.3501 0.733645 15.0572 0.46909 14.7143 0.285129C14.3715 0.101167 13.9891 0.00331403 13.6 2.29084e-07H2.40002C2.00896 -0.000170615 1.62378 0.0952189 1.278 0.277869C0.932222 0.46052 0.636311 0.724897 0.416016 1.048L8.00001 5.496Z" fill="#E0861A"/>
<path d="M8.8 6.87194C8.55693 7.01294 8.28101 7.08744 8 7.08794C7.71972 7.08988 7.44384 7.01815 7.2 6.87994L0 2.66394V10.3999C0 11.0365 0.252856 11.6469 0.702944 12.097C1.15303 12.5471 1.76348 12.7999 2.4 12.7999H13.6C14.2365 12.7999 14.847 12.5471 15.2971 12.097C15.7471 11.6469 16 11.0365 16 10.3999V2.66394L8.8 6.87194Z" fill="#E0861A"/>
</svg>
