<svg width="17" height="16" viewBox="0 0 17 16" fill="none" xmlns="http://www.w3.org/2000/svg">
<path d="M8.97852 0C4.56733 0 0.978516 3.58882 0.978516 8C0.978516 12.4109 4.56733 16 8.97852 16C13.3894 16 16.9785 12.4109 16.9785 8C16.9785 3.58882 13.39 0 8.97852 0ZM12.5474 6.16902C12.5509 6.24829 12.5528 6.3282 12.5528 6.40812C12.5528 8.84138 10.7012 11.6462 7.31349 11.6462C6.27361 11.6462 5.30559 11.3423 4.49096 10.8196C4.635 10.8367 4.78163 10.8454 4.93018 10.8454C5.79315 10.8454 6.58683 10.5509 7.21714 10.0572C6.41153 10.0424 5.73127 9.51003 5.497 8.77822C5.60914 8.79948 5.72483 8.81141 5.84309 8.81141C6.01098 8.81141 6.17404 8.78949 6.32839 8.74728C5.48605 8.57843 4.85155 7.83437 4.85155 6.94175C4.85155 6.93402 4.85155 6.92596 4.85187 6.91855C5.1 7.05615 5.3839 7.13929 5.68552 7.14863C5.19184 6.81898 4.8667 6.25506 4.8667 5.61637C4.8667 5.27866 4.95725 4.96222 5.11579 4.69024C6.02355 5.80456 7.38084 6.53734 8.91084 6.61468C8.87926 6.47966 8.86347 6.33948 8.86347 6.1948C8.86347 5.17812 9.68777 4.3535 10.7044 4.3535C11.2342 4.3535 11.7121 4.57714 12.0485 4.93483C12.4684 4.85233 12.8615 4.69959 13.2183 4.48788C13.0797 4.91807 12.7887 5.27866 12.4075 5.50681C12.7803 5.46234 13.1361 5.36373 13.4651 5.21711C13.2196 5.58576 12.9073 5.91025 12.5474 6.16902Z" fill="#4B4B4B"/>
</svg>
