<svg width="16" height="20" viewBox="0 0 16 20" fill="none" xmlns="http://www.w3.org/2000/svg">
<path d="M13.0815 1.82251C12.1593 1.06744 11.0811 0.526441 9.9245 0.238531C8.76794 -0.0493785 7.5619 -0.0770226 6.39336 0.157593C4.89087 0.465633 3.5086 1.19908 2.4112 2.27056C1.31379 3.34204 0.547522 4.70639 0.203658 6.20108C-0.140206 7.69578 -0.0471656 9.25782 0.471695 10.7011C0.990556 12.1444 1.91337 13.4082 3.1302 14.3418C4.5195 15.3587 5.70237 16.6308 6.61559 18.0903L7.23782 19.125C7.31685 19.2564 7.42853 19.3652 7.56202 19.4407C7.69551 19.5162 7.84626 19.5558 7.99961 19.5558C8.15297 19.5558 8.30372 19.5162 8.4372 19.4407C8.57069 19.3652 8.68237 19.2564 8.7614 19.125L9.35786 18.1312C10.1531 16.7333 11.2374 15.5211 12.5384 14.5756C13.5585 13.8737 14.4015 12.9444 15.001 11.861C15.6005 10.7776 15.94 9.56964 15.9927 8.33254C16.0455 7.09543 15.81 5.86299 15.305 4.73245C14.7999 3.60191 14.039 2.60421 13.0824 1.81806L13.0815 1.82251ZM7.99872 11.5569C7.29549 11.5569 6.60805 11.3484 6.02333 10.9577C5.43861 10.567 4.98288 10.0117 4.71377 9.36195C4.44465 8.71224 4.37424 7.99733 4.51143 7.30761C4.64862 6.61789 4.98726 5.98434 5.48452 5.48707C5.98179 4.98981 6.61534 4.65117 7.30506 4.51398C7.99478 4.37679 8.70969 4.4472 9.3594 4.71632C10.0091 4.98543 10.5644 5.44116 10.9551 6.02588C11.3458 6.6106 11.5543 7.29804 11.5543 8.00127C11.5543 8.94428 11.1797 9.84866 10.5129 10.5155C9.84611 11.1823 8.94173 11.5569 7.99872 11.5569Z" fill="#E0861A"/>
</svg>
