<svg width="17" height="16" viewBox="0 0 17 16" fill="none" xmlns="http://www.w3.org/2000/svg">
<path d="M8.75464 0C4.2989 0 0.673828 3.58882 0.673828 8C0.673828 12.4109 4.2989 16 8.75464 16C13.2101 16 16.8354 12.4109 16.8354 8C16.8354 3.58882 13.2107 0 8.75464 0ZM10.7643 8.28164H9.44957V12.9206H7.50147C7.50147 12.9206 7.50147 10.3859 7.50147 8.28164H6.57543V6.64207H7.50147V5.58157C7.50147 4.82204 7.86603 3.63522 9.46748 3.63522L10.9111 3.6407V5.23226C10.9111 5.23226 10.0338 5.23226 9.86328 5.23226C9.69272 5.23226 9.45022 5.31668 9.45022 5.67888V6.64239H10.9345L10.7643 8.28164Z" fill="#4B4B4B"/>
</svg>
