<svg width="25" height="17" viewBox="0 0 25 17" fill="none" xmlns="http://www.w3.org/2000/svg">
<path d="M24.1663 9.37559L16.8755 16.6664C16.4307 17.1112 15.7093 17.1112 15.2644 16.6664C14.8195 16.2215 14.8195 15.5002 15.2644 15.0553L20.6105 9.70924H1.13919C0.510082 9.70924 0 9.19916 0 8.57005C0 7.94104 0.510082 7.43087 1.13919 7.43087H20.6105L15.2646 2.08481C14.8197 1.63989 14.8197 0.918646 15.2646 0.473726C15.487 0.251448 15.7786 0.140081 16.0702 0.140081C16.3617 0.140081 16.6532 0.251448 16.8757 0.473726L24.1663 7.76451C24.6112 8.20943 24.6112 8.93067 24.1663 9.37559Z" fill="#4B4B4B"/>
</svg>
