<svg width="16" height="12" viewBox="0 0 16 12" fill="none" xmlns="http://www.w3.org/2000/svg">
<path d="M15.7821 6.03129L11.0208 10.7926C10.7303 11.0831 10.2591 11.0831 9.96862 10.7926C9.67806 10.5021 9.67806 10.031 9.96862 9.74049L13.4599 6.24918H0.743958C0.333115 6.24918 0 5.91607 0 5.50523C0 5.09444 0.333115 4.76127 0.743958 4.76127H13.4599L9.96874 1.26996C9.67818 0.979404 9.67818 0.508389 9.96874 0.21783C10.114 0.0726681 10.3044 -6.10352e-05 10.4948 -6.10352e-05C10.6852 -6.10352e-05 10.8756 0.0726681 11.0209 0.21783L15.7821 4.97916C16.0726 5.26972 16.0726 5.74073 15.7821 6.03129Z" fill="#4B4B4B"/>
</svg>
