<svg width="25" height="17" viewBox="0 0 25 17" fill="none" xmlns="http://www.w3.org/2000/svg">
<path d="M0.333689 9.37559L7.62447 16.6664C8.0693 17.1112 8.79073 17.1112 9.23556 16.6664C9.68048 16.2215 9.68048 15.5002 9.23556 15.0553L3.88949 9.70924H23.3608C23.9899 9.70924 24.5 9.19916 24.5 8.57005C24.5 7.94104 23.9899 7.43087 23.3608 7.43087H3.88949L9.23537 2.08481C9.68029 1.63989 9.68029 0.918646 9.23537 0.473726C9.013 0.251448 8.72137 0.140081 8.42983 0.140081C8.13829 0.140081 7.84675 0.251448 7.62429 0.473726L0.333689 7.76451C-0.111231 8.20943 -0.111231 8.93067 0.333689 9.37559Z" fill="#4B4B4B"/>
</svg>
