<svg width="72" height="72" viewBox="0 0 72 72" fill="none" xmlns="http://www.w3.org/2000/svg">
<path d="M51.5168 32.2658L41.0032 26.1752L30.5621 20.1571C29.547 19.577 28.3868 19.432 27.3717 19.722C26.3566 20.0121 25.414 20.6646 24.834 21.6797C24.6164 21.9698 24.5439 22.3323 24.3989 22.6948C24.3264 22.9124 24.3264 23.2024 24.2539 23.4924C24.2539 23.5649 24.2539 23.71 24.2539 23.7825V36.1087V48.435C24.2539 49.5952 24.7615 50.6828 25.4865 51.4078C26.2841 52.2054 27.2992 52.6405 28.4593 52.6405C29.1119 52.6405 30.4896 52.0604 30.8521 51.8429L41.1482 45.8973H41.2207L41.2932 45.8248L51.9518 39.6616C52.9669 39.0816 53.6195 38.139 53.9095 37.0513C53.982 36.8338 53.982 36.5438 53.982 36.2538C53.982 33.861 51.5168 32.2658 51.5168 32.2658ZM50.0666 36.5438L39.553 42.6344C39.4805 42.6344 39.408 42.7069 39.408 42.7069L29.1119 48.6526C29.0394 48.7251 28.6769 48.8701 28.5319 48.8701C28.3868 48.8701 28.2418 48.7976 28.0968 48.7251C28.0243 48.6526 27.9518 48.435 27.9518 48.29V36.0362V23.7825V23.71C27.9518 23.6374 27.9518 23.6374 27.9518 23.5649C27.9518 23.5649 27.9518 23.4924 28.0243 23.4924C28.0243 23.4924 28.0968 23.4199 28.0968 23.3474C28.1693 23.2749 28.3143 23.2024 28.3868 23.1299C28.5319 23.1299 28.6769 23.1299 28.7494 23.1299C28.8219 23.2024 28.8944 23.2024 28.9669 23.2749L39.263 29.2205C39.3355 29.293 39.408 29.293 39.408 29.293H39.4805L49.9941 35.3837C50.1391 35.4562 50.4291 35.6737 50.4291 35.8912C50.4291 36.1813 50.2116 36.4713 50.0666 36.5438Z" fill="white"/>
<path d="M61.451 10.5861C54.4903 3.55287 45.2818 0 36.0734 0C26.8649 0 17.6564 3.48036 10.6232 10.5136C3.58998 17.6193 0.0371094 26.8278 0.0371094 36.0363C0.0371094 45.2447 3.51747 54.4532 10.5507 61.4864C17.5839 68.5196 26.7924 72 36.0009 72C45.2093 72 54.4178 68.5196 61.451 61.4864C68.4842 54.4532 71.9646 45.2447 71.9646 36.0363C71.9646 26.8278 68.4842 17.6193 61.451 10.5861ZM58.9132 58.8761C52.6051 65.1843 44.3392 68.3746 36.0734 68.3746C27.8075 68.3746 19.5416 65.1843 13.2335 58.8761C6.85282 52.568 3.73499 44.3021 3.73499 36.0363C3.73499 27.7704 6.92533 19.5045 13.2335 13.1964C19.5416 6.88822 27.8075 3.69788 36.0734 3.69788C44.3392 3.69788 52.6051 6.88822 58.9132 13.1964C65.2214 19.5045 68.4117 27.7704 68.4117 36.0363C68.4117 44.3021 65.2939 52.568 58.9132 58.8761Z" fill="white"/>
</svg>
