<svg width="68" height="68" viewBox="0 0 68 68" fill="none" xmlns="http://www.w3.org/2000/svg">
<g clip-path="url(#clip0)">
<path d="M59.5 21.4645V14.8749C59.5 13.7014 58.5485 12.7499 57.375 12.7499H47.6297L35.5024 0.622514C34.672 -0.20783 33.3274 -0.20783 32.4976 0.622514L20.3703 12.7499H10.625C9.45147 12.7499 8.5 13.7014 8.5 14.8749V21.4645C3.65659 22.4521 0 26.7441 0 31.8749V57.3749C0 63.233 4.76691 67.9999 10.625 67.9999H57.375C63.2331 67.9999 68 63.233 68 57.3749V31.8749C68 26.7441 64.3434 22.4521 59.5 21.4645ZM34 5.12964L41.6203 12.7499H26.3797L34 5.12964ZM12.75 16.9999H55.25V30.9951L34 52.2451L12.75 30.9951V16.9999ZM63.75 57.3749C63.75 60.8902 60.8903 63.7499 57.375 63.7499H10.625C7.10972 63.7499 4.25 60.8902 4.25 57.3749V31.8749C4.25 29.1081 6.03181 26.7717 8.5 25.8914V31.8749C8.5 32.4385 8.72419 32.9788 9.12263 33.3773L20.3703 44.6249L9.12263 55.8725C8.29228 56.7029 8.29228 58.0475 9.12263 58.8773C9.53753 59.2922 10.0815 59.4999 10.625 59.4999C11.1685 59.4999 11.7125 59.2922 12.1274 58.8773L23.375 47.6296L32.4976 56.7523C32.9125 57.1672 33.4565 57.3749 34 57.3749C34.5435 57.3749 35.0875 57.1672 35.5024 56.7523L44.625 47.6296L55.8726 58.8773C56.2875 59.2922 56.8315 59.4999 57.375 59.4999C57.9185 59.4999 58.4625 59.2922 58.8774 58.8773C59.7077 58.0469 59.7077 56.7023 58.8774 55.8725L47.6297 44.6249L58.8774 33.3773C59.2758 32.9788 59.5 32.4385 59.5 31.8749V25.8914C61.9682 26.7712 63.75 29.1081 63.75 31.8749V57.3749ZM22.3125 25.4999C22.3125 24.3264 23.264 23.3749 24.4375 23.3749H43.5625C44.736 23.3749 45.6875 24.3264 45.6875 25.4999C45.6875 26.6734 44.736 27.6249 43.5625 27.6249H24.4375C23.264 27.6249 22.3125 26.6734 22.3125 25.4999ZM43.5625 36.1249H24.4375C23.264 36.1249 22.3125 35.1734 22.3125 33.9999C22.3125 32.8264 23.264 31.8749 24.4375 31.8749H43.5625C44.736 31.8749 45.6875 32.8264 45.6875 33.9999C45.6875 35.1734 44.736 36.1249 43.5625 36.1249Z" fill="#E0861A"/>
</g>
<defs>
<clipPath id="clip0">
<rect width="68" height="68" fill="white"/>
</clipPath>
</defs>
</svg>
